<svg xmlns="http://www.w3.org/2000/svg" width="480" height="200" viewBox="0 0 480 200">
      <defs>
        <filter id="shadow-gs-4" x="-10%" y="-10%" width="130%" height="130%">
          <feDropShadow dx="0" dy="4" stdDeviation="8" flood-opacity="0.25" flood-color="#00000040"/>
        </filter>
        <linearGradient id="grad-gs-5" x1="0%" y1="0%" x2="100%" y2="0%">
          <stop offset="0%" stop-color="#58a6ff"/>
          <stop offset="100%" stop-color="#3fb950"/>
        </linearGradient>
      </defs>
    <rect x="0" y="0" width="480" height="200" rx="12" fill="#0d1117" filter="url(#shadow-gs-6)"/>
    <rect x="0" y="0" width="480" height="200" rx="12" fill="none" stroke="#30363d" stroke-width="1"/>
    <text x="240" y="40" text-anchor="middle" font-family="'Segoe UI', -apple-system, BlinkMacSystemFont, sans-serif" font-size="18" font-weight="700" fill="#f0f6fc">Top Languages</text>
  
      <circle cx="26" cy="54" r="8" fill="#3572A5"/>
      <text x="40" y="58" font-family="'Segoe UI', -apple-system, BlinkMacSystemFont, sans-serif" font-size="11" fill="#c9d1d9">Python</text>
      <rect x="100" y="48" width="340" height="12" rx="3" fill="#21262d"/>
      <rect x="100" y="48" width="336" height="12" rx="3" fill="#3572A5"/>
      <text x="445" y="58" font-family="'Segoe UI', -apple-system, BlinkMacSystemFont, sans-serif" font-size="11" fill="#8b949e">
        34.6% 2.0 MB
      </text>
    
      <circle cx="26" cy="82" r="8" fill="#3178c6"/>
      <text x="40" y="86" font-family="'Segoe UI', -apple-system, BlinkMacSystemFont, sans-serif" font-size="11" fill="#c9d1d9">TypeScript</text>
      <rect x="100" y="76" width="340" height="12" rx="3" fill="#21262d"/>
      <rect x="100" y="76" width="295.3102321862992" height="12" rx="3" fill="#3178c6"/>
      <text x="445" y="86" font-family="'Segoe UI', -apple-system, BlinkMacSystemFont, sans-serif" font-size="11" fill="#8b949e">
        30.4% 1.8 MB
      </text>
    
      <circle cx="26" cy="110" r="8" fill="#f1e05a"/>
      <text x="40" y="114" font-family="'Segoe UI', -apple-system, BlinkMacSystemFont, sans-serif" font-size="11" fill="#c9d1d9">JavaScript</text>
      <rect x="100" y="104" width="340" height="12" rx="3" fill="#21262d"/>
      <rect x="100" y="104" width="197.26694690633173" height="12" rx="3" fill="#f1e05a"/>
      <text x="445" y="114" font-family="'Segoe UI', -apple-system, BlinkMacSystemFont, sans-serif" font-size="11" fill="#8b949e">
        20.3% 1.2 MB
      </text>
    
      <circle cx="26" cy="138" r="8" fill="#e34c26"/>
      <text x="40" y="142" font-family="'Segoe UI', -apple-system, BlinkMacSystemFont, sans-serif" font-size="11" fill="#c9d1d9">HTML</text>
      <rect x="100" y="132" width="340" height="12" rx="3" fill="#21262d"/>
      <rect x="100" y="132" width="111.40066535429686" height="12" rx="3" fill="#e34c26"/>
      <text x="445" y="142" font-family="'Segoe UI', -apple-system, BlinkMacSystemFont, sans-serif" font-size="11" fill="#8b949e">
        11.5% 678 KB
      </text>
    
      <circle cx="26" cy="166" r="8" fill="#563d7c"/>
      <text x="40" y="170" font-family="'Segoe UI', -apple-system, BlinkMacSystemFont, sans-serif" font-size="11" fill="#c9d1d9">CSS</text>
      <rect x="100" y="160" width="340" height="12" rx="3" fill="#21262d"/>
      <rect x="100" y="160" width="14.214420594463403" height="12" rx="3" fill="#563d7c"/>
      <text x="445" y="170" font-family="'Segoe UI', -apple-system, BlinkMacSystemFont, sans-serif" font-size="11" fill="#8b949e">
        1.5% 87 KB
      </text>
    
      <circle cx="26" cy="194" r="8" fill="#868e96"/>
      <text x="40" y="198" font-family="'Segoe UI', -apple-system, BlinkMacSystemFont, sans-serif" font-size="11" fill="#c9d1d9">Jupyter Notebook</text>
      <rect x="100" y="188" width="340" height="12" rx="3" fill="#21262d"/>
      <rect x="100" y="188" width="12.093241295521036" height="12" rx="3" fill="#868e96"/>
      <text x="445" y="198" font-family="'Segoe UI', -apple-system, BlinkMacSystemFont, sans-serif" font-size="11" fill="#8b949e">
        1.2% 74 KB
      </text>
    
      <circle cx="26" cy="222" r="8" fill="#00B4AB"/>
      <text x="40" y="226" font-family="'Segoe UI', -apple-system, BlinkMacSystemFont, sans-serif" font-size="11" fill="#c9d1d9">Dart</text>
      <rect x="100" y="216" width="340" height="12" rx="3" fill="#21262d"/>
      <rect x="100" y="216" width="4.5957012725402375" height="12" rx="3" fill="#00B4AB"/>
      <text x="445" y="226" font-family="'Segoe UI', -apple-system, BlinkMacSystemFont, sans-serif" font-size="11" fill="#8b949e">
        0.5% 28 KB
      </text>
    </svg>